# xmcd
#
# Track frame offsets: 
#        150
#        15847
#        33454
#        49184
#        61180
#        74797
#        90675
#        104586
#        127754
#        139651
#        153371
#        167003
#        179210
#        200213
#        219026
#        228600
#        240076
#        255673
#        267719
#        283211
#        312351
#        342905
#
# Disc length: 4588 seconds
#
# Revision: 0
# Processed by: cddbd v1.5.2PL0 Copyright (c) Steve Scherf et al.
# Submitted via: ExactAudioCopy v0.99pb5
#
DISCID=4811ea16
DTITLE=Champagne Charlie - Waitin. On Roosevelt
DYEAR=2008
DGENRE=Blues
TTITLE0=1.  Breadline Blues (Slim Smith)
TTITLE1=2.  The Chiseler's Sorrow (Hershel Phillips)
TTITLE2=3.  Happy Days Are Here Again (Milton Ager - Jack Yellen)
TTITLE3=4.  On To Victory Mr. Roosevelt (W. Lee O' Daniel)
TTITLE4=5.  President Blues (President Roosevelt Blues) (Jack Kelly)
TTITLE5=6.  Low Cotton (Josh White)
TTITLE6=7.  NRA Blues (Bill Cox)
TTITLE7=8.  Waitin' On Roosevelt (Langston Hughes)
TTITLE8=9.  The Honest Farmer (Fiddlin' John Carson)
TTITLE9=10.  New Deal Blues (Austin and Lee Allen)
TTITLE10=11.  Hillbilly Willie's Blues (Blind Willie McTell)
TTITLE11=12.  Franklin D. Roosevelt's Back Again (Bill Cox)
TTITLE12=13.  The Democratic Donkey (Is In His Stall Again) (Bill Cox)
TTITLE13=14.  Casey Bill's New WPA (Casey Bill Weldon)
TTITLE14=15.  FDR in Trinidad (Atilla The Hun)
TTITLE15=16.  Welfare Store Blues (John Lee Williamson)
TTITLE16=17.  President Roosevelt (Huddie Ledbetter)
TTITLE17=18.  Tell Me Why You Like Roosevelt (Otis Jackson)
TTITLE18=19.  His Spirit Lives On (Big Joe Williams)
TTITLE19=20.  Dear Mrs. Roosevelt (Woody Guthrie, Ludlow Music Inc.)
TTITLE20=21.  (Still) Waitin' On Roosevelt (Langston Hughes)
TTITLE21=22
EXTD=
EXTT0=
EXTT1=
EXTT2=
EXTT3=
EXTT4=
EXTT5=
EXTT6=
EXTT7=
EXTT8=
EXTT9=
EXTT10=
EXTT11=
EXTT12=
EXTT13=
EXTT14=
EXTT15=
EXTT16=
EXTT17=
EXTT18=
EXTT19=
EXTT20=
EXTT21=
PLAYORDER=
